<svg xmlns="http://www.w3.org/2000/svg" width="150" height="38" viewBox="0 0 150 38">
    <g fill="none" fill-rule="evenodd">
        <g fill="#FFF">
            <g>
                <g>
                    <path d="M120.802 19.172c-4.9 0-7.237 3.722-7.237 8.302 0 4.575 2.337 8.294 7.237 8.294 4.967 0 7.242-3.72 7.242-8.294 0-4.58-2.275-8.302-7.242-8.302zm0 18.828c-6.632 0-12.077-4.748-12.077-10.526 0-5.783 5.445-10.474 12.077-10.474 6.642 0 12.084 4.69 12.084 10.474 0 5.778-5.442 10.526-12.084 10.526zM148.922 33.762c-1.2 1.404-2.829 1.974-3.907 1.974-1.932 0-2.715-1.41-2.715-4.124V20.198h5.236v-1.98H142.3V12h-2.046c-.416 3.675-1.743 6.104-5.355 6.839v1.36h3.129v11.413c0 4.409 2.29 6.388 5.599 6.388 1.982 0 4.873-1.253 6.373-3.302M45.267 37.612c.032-1.826 1.834-1.59 1.834-1.59h.976c1.738-.032 3.035-1.36 3.035-2.969 0-1.457-1.162-2.505-3.096-3.548l-3.04-1.754c-2.707-1.51-3.7-3.955-3.7-5.82 0-3.143 2.19-5.509 5.57-5.33 0 0-.048-.102 0 0C43.163 8.95 47.56.125 54.893.002c4.373-.073 9.241 3.065 9.204 12.295v9.141c1.546-1.982 4.033-4.194 7.24-4.194 5.084 0 6.794 3.729 6.794 8.676v3.665c0 5.823.72 6.814 4.42 6.814v1.221H70.34V36.4c3.478 0 3.923-.817 3.923-6.815v-3.376c0-3.783-1.328-6.228-4.2-6.228-2.763 0-5.967 2.504-5.967 5.822v3.782c0 6.057.442 6.814 3.479 6.814v1.221H55.808V36.4c3.699 0 4.363-.992 4.363-6.815V13.042c.011-3.998-.241-11.28-5.982-11.262-5.329.018-7.57 7.977-3.312 15.636.89 1.6 2.277 1.199 2.277 2.943 0 1.052-.882 1.805-1.986 1.805-1.049 0-2.034-1.069-2.818-2.443-.194-.334-.573-.929-.795-1.512-.112 0-.205-.005-.319-.005-1.82 0-2.647 1.341-2.647 2.798 0 1.397.941 2.151 3.372 3.551l2.652 1.513c2.432 1.455 3.814 3.493 3.814 5.587 0 3.843-2.983 6.347-6.575 6.347h-2.288c-.168 0-.3-.247-.297-.388M95.642 19.172c-4.91 0-7.239 3.722-7.239 8.304 0 4.572 2.33 8.29 7.24 8.29 4.96 0 7.234-3.718 7.234-8.29 0-4.582-2.275-8.304-7.235-8.304zm0 18.828C89 38 83.557 33.252 83.557 27.476 83.557 21.696 89 17 95.642 17c6.638 0 12.076 4.696 12.076 10.476 0 5.776-5.438 10.524-12.076 10.524zM10.485 26.672c.96-.292 2.994-1.101 3.505-1.503.518-.402.047-.546-.174-.488-.171.043-2.188.77-2.785.855-.59.086-1.107.044-1.656.214-.403.124-.509.529-.418.798.105.342.78.353 1.528.124zM13.088 12C5.858 12 0 17.822 0 24.998c0 1.198.165 2.352.47 3.454.846-2.355 2.566-4.023 5.177-4.826 1.23-.373 2.12-.551 3.004-.699.88-.15 1.537-.214 2.56-.528 3.006-.926 5.297-2.333 6.874-4.455.98.958 1.61 2.032 1.945 3.116 1.462 4.68.008 11.293-5.861 13.098-4.848 1.49-7.711-1.934-8.238-3.631-.427-1.356-.31-2.432-.027-2.967.286-.533.269-1.046.121-1.521-.102-.342-.691-.532-1.44-.303-.954.294-2.014 1.219-2.538 2.418-.467 1.062-.477 2.292-.234 3.449C4.091 35.43 8.29 38 13.088 38c7.23 0 13.086-5.82 13.086-13.002C26.174 17.822 20.317 12 13.088 12z" transform="translate(-100 -3035) translate(0 2995) translate(100 40)"/>
                </g>
            </g>
        </g>
    </g>
</svg>
