<svg xmlns="http://www.w3.org/2000/svg" width="174" height="44" viewBox="0 0 174 44">
    <g fill="none" fill-rule="evenodd">
        <g fill="#0C8A59">
            <g>
                <path d="M139.893 21.746c-5.49 0-8.11 4.4-8.11 9.812 0 5.408 2.62 9.804 8.11 9.804 5.567 0 8.117-4.396 8.117-9.804 0-5.412-2.55-9.812-8.117-9.812zm0 22.254c-7.432 0-13.534-5.612-13.534-12.442 0-6.834 6.102-12.379 13.534-12.379 7.444 0 13.543 5.545 13.543 12.38 0 6.829-6.099 12.441-13.543 12.441zM171.407 39.035c-1.344 1.645-3.17 2.312-4.378 2.312-2.165 0-3.043-1.65-3.043-4.83V23.143h5.868v-2.322h-5.868v-7.284h-2.293c-.466 4.307-1.953 7.152-6 8.013v1.593h3.505v13.372c0 5.165 2.566 7.484 6.275 7.484 2.222 0 5.462-1.468 7.142-3.869M52.076 43.55c.038-2.113 2.156-1.841 2.156-1.841h1.147c2.043-.036 3.567-1.575 3.567-3.437 0-1.687-1.365-2.901-3.639-4.108l-3.573-2.03c-3.181-1.75-4.35-4.58-4.35-6.74 0-3.64 2.577-6.379 6.549-6.17 0 0-.057-.12 0 0-4.33-8.862.839-19.08 9.456-19.223 5.14-.085 10.862 3.55 10.818 14.237v10.584c1.817-2.295 4.74-4.856 8.509-4.856 5.976 0 7.986 4.317 7.986 10.045v4.244c0 6.742.847 7.89 5.195 7.89v1.414H81.545v-1.414c4.089 0 4.612-.945 4.612-7.89v-3.909c0-4.38-1.561-7.211-4.938-7.211-3.246 0-7.012 2.9-7.012 6.741v4.379c0 7.013.52 7.89 4.089 7.89v1.414h-13.83v-1.414c4.347 0 5.128-1.148 5.128-7.89V15.102c.013-4.63-.284-13.062-7.031-13.041-6.263.021-8.898 9.237-3.892 18.105 1.046 1.853 2.676 1.388 2.676 3.408 0 1.218-1.037 2.089-2.334 2.089-1.234 0-2.391-1.237-3.313-2.828-.228-.387-.674-1.076-.935-1.751-.131 0-.24-.005-.374-.005-2.14 0-3.11 1.552-3.11 3.24 0 1.616 1.105 2.49 3.962 4.111l3.117 1.752c2.858 1.684 4.483 4.045 4.483 6.469 0 4.45-3.506 7.349-7.729 7.349h-2.689c-.196 0-.351-.286-.349-.45M109.44 21.747c-5.501 0-8.112 4.399-8.112 9.814 0 5.404 2.61 9.798 8.113 9.798 5.559 0 8.108-4.394 8.108-9.798 0-5.415-2.55-9.814-8.108-9.814zm0 22.253c-7.442 0-13.543-5.611-13.543-12.44 0-6.83 6.1-12.38 13.544-12.38 7.439 0 13.533 5.55 13.533 12.38 0 6.829-6.094 12.44-13.533 12.44zM12.202 30.728c1.117-.342 3.484-1.29 4.08-1.761.602-.471.055-.64-.203-.572-.2.05-2.547.903-3.241 1.003-.688.1-1.29.05-1.928.25-.468.146-.591.62-.486.935.123.401.908.414 1.778.145zm3.03-17.19C6.815 13.538 0 20.36 0 28.766c0 1.404.192 2.757.546 4.047.985-2.759 2.988-4.713 6.026-5.653 1.432-.438 2.468-.646 3.496-.82 1.023-.174 1.79-.25 2.98-.618 3.498-1.085 6.164-2.734 8-5.22 1.139 1.123 1.872 2.38 2.263 3.651 1.702 5.483.01 13.23-6.822 15.346-5.64 1.744-8.973-2.266-9.587-4.255-.496-1.588-.361-2.849-.03-3.476.332-.624.312-1.225.14-1.781-.12-.4-.804-.624-1.677-.356-1.109.345-2.343 1.428-2.953 2.834-.543 1.243-.555 2.685-.272 4.04C4.761 40.99 9.648 44 15.231 44c8.414 0 15.23-6.819 15.23-15.234 0-8.407-6.816-15.228-15.23-15.228z" transform="translate(-50 -23) translate(50.5 23)"/>
            </g>
        </g>
    </g>
</svg>
